<svg id="etGO20BvSpf1" xmlns="http://www.w3.org/2000/svg" xmlns:xlink="http://www.w3.org/1999/xlink" viewBox="0 0 280 280" shape-rendering="geometricPrecision" text-rendering="geometricPrecision" project-id="138ec5e8e2d845ed8acd83e52c5aa930" export-id="750c94ae5c384e40ab5d739ce3fa0819" cached="false"><defs><linearGradient id="etGO20BvSpf3-fill" x1="0.208222" y1="0.899188" x2="0.859208" y2="0.159721" spreadMethod="pad" gradientUnits="objectBoundingBox" gradientTransform="translate(0 0)"><stop id="etGO20BvSpf3-fill-0" offset="0%" stop-color="#63c1ff"/><stop id="etGO20BvSpf3-fill-1" offset="100%" stop-color="#eb2f8a"/></linearGradient><linearGradient id="etGO20BvSpf4-fill" x1="0.208222" y1="0.899188" x2="0.859208" y2="0.159721" spreadMethod="pad" gradientUnits="objectBoundingBox" gradientTransform="translate(0 0)"><stop id="etGO20BvSpf4-fill-0" offset="0%" stop-color="#63c1ff"/><stop id="etGO20BvSpf4-fill-1" offset="100%" stop-color="#eb2f8a"/></linearGradient><linearGradient id="etGO20BvSpf5-fill" x1="0.208222" y1="0.899188" x2="0.859208" y2="0.159721" spreadMethod="pad" gradientUnits="objectBoundingBox" gradientTransform="translate(0 0)"><stop id="etGO20BvSpf5-fill-0" offset="0%" stop-color="#63c1ff"/><stop id="etGO20BvSpf5-fill-1" offset="100%" stop-color="#eb2f8a"/></linearGradient></defs><ellipse rx="131.815352" ry="126.521563" transform="matrix(.946873 0 0 0.988058 139.999946 140)" fill="#fff" stroke-width="0"/><path d="M81.960823,251.110092c-28.66967-15.91391-48.222416-39.048202-59.683424-70.868591c9.040285,3.654205,16.925783,6.835739,24.805895,10.030548c2.300293.932587,4.555492,1.983734,6.882687,2.841278c7.591762,2.79747,13.497734,6.291092,17.147346,14.876816c5.989357,14.090011,22.819054,21.038513,37.611595,17.880035c15.578736-3.326339,27.370171-16.994644,28.443245-32.534683.131729-1.907486,1.521149-4.298706,3.078781-5.446976c12.571915-9.268066,25.163559-18.53099,38.131378-27.225418c3.306458-2.216858,7.916825-2.794021,12.035492-3.443939c23.543091-3.715134,41.15799-23.537247,41.504639-46.976799.356064-24.075287-16.70253-44.861267-40.331787-49.144501-28.318176-5.13319-55.261566,16.534279-56.753586,45.537514-.09613,1.868683-.702515,3.95948-1.741928,5.492371-9.123573,13.455284-18.313789,26.868255-27.737221,40.113815-1.199249,1.685669-3.73394,2.709-5.858101,3.388809-4.381645,1.402283-9.168617,1.790817-13.285911,3.687897-3.403519,1.568222-5.914444,1.415649-9.217171.026626-18.913788-7.954696-37.925358-15.677597-56.929882-23.414962-2.449823-.997422-4.108994-1.763031-3.761509-5.212906c5.336914-52.985291,40.510864-95.675671,90.815292-109.949623c71.302613-20.232215,144.743088,26.221195,157.012131,99.315124c11.654144,69.430412-35.908157,134.784264-105.47615,144.658837-26.843094,3.81015-52.35125-.777466-76.691811-13.631272Z" transform="translate(-1.071262-1.028415)" fill="url(#etGO20BvSpf3-fill)"/><path d="M212.906418,95.281357c7.848953,18.773269-.666977,38.319687-19.261292,44.83992-17.614914,6.176803-36.254425-3.832718-41.832641-22.464409-4.310227-14.396515,3.003708-30.712387,16.926544-37.759659c13.827682-6.999092,31.154327-3.067329,40.258484,9.187683c1.380264,1.857979,2.534439,3.883927,3.908905,6.196465M159.107391,108.62233c.404221,12.12458,7.946961,21.741958,18.995514,24.220245c10.273041,2.304337,21.691712-2.920227,26.62645-12.182793c5.176712-9.716827,3.114609-22.150505-5.135986-29.504814-6.995331-6.235405-15.243958-8.034889-24.040406-4.951561-10.010772,3.508965-15.326278,11.046097-16.445572,22.418923Z" fill="url(#etGO20BvSpf4-fill)"/><path d="M113.463715,175.465118c-7.027779-3.503112-13.783699-6.763-20.734368-10.116882c11.635247-5.256027,26.381928.258072,33.031113,12.091339c7.004738,12.466004,3.175896,28.608872-8.688225,36.580216-12.328857,8.283554-30.591385,5.880233-40.113663-10.190964c1.934441.369171,3.431183.448212,4.768914.950592c3.406845,1.279465,6.723266,2.797302,10.110519,4.131805c10.082787,3.972397,20.124664,1.184861,25.573357-7.053161c5.507477-8.326905,4.113891-18.240937-3.947647-26.392945Z" fill="url(#etGO20BvSpf5-fill)"/><path d="M159.108856,108.194717c1.117829-10.945213,6.433335-18.482345,16.444107-21.99131c8.796448-3.083328,17.045075-1.283844,24.040406,4.951561c8.250595,7.354309,10.312698,19.787987,5.135986,29.504814-4.934738,9.262566-16.353409,14.48713-26.62645,12.182793-11.048553-2.478287-18.591293-12.095665-18.994049-24.647858Z" fill="#fefefe"/></svg>
