<svg id="e5S38QloCFK1" xmlns="http://www.w3.org/2000/svg" xmlns:xlink="http://www.w3.org/1999/xlink" viewBox="0 0 280 280" shape-rendering="geometricPrecision" text-rendering="geometricPrecision" project-id="4093cc5e6bfd451fb54e8ad0ba6367b8" export-id="6b29996a7eb942a1bf07ccd7d29a0213" cached="false"><defs><linearGradient id="e5S38QloCFK2-fill" x1="0.131274" y1="0.828405" x2="0.866298" y2="0.161538" spreadMethod="pad" gradientUnits="objectBoundingBox" gradientTransform="translate(0 0)"><stop id="e5S38QloCFK2-fill-0" offset="0%" stop-color="#63c1ff"/><stop id="e5S38QloCFK2-fill-1" offset="100%" stop-color="#eb2f8a"/></linearGradient><linearGradient id="e5S38QloCFK4-fill" x1="0.131274" y1="0.828405" x2="0.866298" y2="0.161538" spreadMethod="pad" gradientUnits="objectBoundingBox" gradientTransform="translate(0 0)"><stop id="e5S38QloCFK4-fill-0" offset="0%" stop-color="#63c1ff"/><stop id="e5S38QloCFK4-fill-1" offset="100%" stop-color="#eb2f8a"/></linearGradient></defs><path d="M95.179886,257.878235c-43.38916-19.164444-69.523403-51.776611-76.832588-98.246842C8.338715,95.998993,51.347263,34.146397,114.353035,20.10088C185.756927,4.183211,255.240601,52.05756,265.817169,124.4599c10.152741,69.500854-40.547516,134.423706-110.560623,141.767303-20.632889,2.164154-40.46978-.681305-60.07666-8.348968M172.5,70.021454c-26.157532,0-52.315056.000007-78.472588.000007-12.161666,0-11.816169.146569-16.522438,11.239846-4.169891,9.828972-5.812141,19.763122-5.654983,30.451454.423698,28.817009.144905,57.64434.144905,86.467583c0,1.784881,0,3.569763,0,5.774337c12.370895,0,24.291405,0,36.602562,0c0,6.84607,0,13.272293,0,20.003769c5.205864,0,10.026993-.202469,14.82167.06659c3.582329.201049,6.24086-.73346,8.716095-3.479859c4.232407-4.696029,8.696869-9.225372,13.438736-13.398834c1.885208-1.659241,4.725769-2.940933,7.206055-3.082016c7.141037-.406189,14.333893.109039,21.476837-.280212c2.496384-.136017,5.499253-1.241166,7.260208-2.947007c11.605347-11.242141,23.028321-22.678695,34.254196-34.299728c1.69693-1.756668,2.890381-4.798737,2.90799-7.256348.200653-27.988769.127472-55.979484.127472-83.96968c0-1.617455,0-3.234909,0-5.289902-15.402496,0-30.354614,0-46.306717,0Z" fill="url(#e5S38QloCFK2-fill)"/><path d="M173,70.021454c15.452103,0,30.404221,0,45.806717,0c0,2.054993,0,3.672447,0,5.289902c0,27.990196.073181,55.980911-.127472,83.96968-.017609,2.457611-1.21106,5.49968-2.90799,7.256348-11.225875,11.621033-22.648849,23.057587-34.254196,34.299728-1.760955,1.705841-4.763824,2.81099-7.260208,2.947007-7.142944.389251-14.3358-.125977-21.476837.280212-2.480286.141083-5.320847,1.422775-7.206055,3.082016-4.741867,4.173462-9.206329,8.702805-13.438736,13.398834-2.475235,2.746399-5.133766,3.680908-8.716095,3.479859-4.794677-.269059-9.615806-.06659-14.82167-.06659c0-6.731476,0-13.157699,0-20.003769-12.311157,0-24.231667,0-36.602562,0c0-2.204574,0-3.989456,0-5.774337c0-28.823243.278793-57.650574-.144905-86.467583-.157158-10.688332,1.485092-20.622482,5.654983-30.451454c4.706269-11.093277,4.360772-11.239846,16.522438-11.239846c26.157532,0,52.315056-.000007,78.972588-.000007M95.094467,161.499603c0,6.25354,0,12.50708,0,19.183884c10.349213,0,20.095085,0,30.250061,0c0,6.631424,0,12.830139,0,19.426025c5.980408-5.884079,11.392731-11.511459,17.180908-16.721267c1.752091-1.577057,4.519608-2.738434,6.86522-2.818131c9.315628-.316498,18.657379.09726,27.968948-.274017c2.641067-.105301,5.757553-1.352448,7.714477-3.118958c6.047928-5.459457,11.795395-11.280594,17.314957-17.278381c1.584641-1.721954,2.806397-4.510544,2.828903-6.823349.210694-21.648453.124222-43.299812.123719-64.950333-.000031-1.443847-.000016-2.887703-.000016-4.412445-37.051452,0-73.582443,0-110.247177,0c0,25.836998,0,51.312012,0,77.786972Z" fill="#fbfbfb"/><path d="M95.094467,160.999634c0-25.974991,0-51.450005,0-77.287003c36.664734,0,73.195725,0,110.247177,0c0,1.524742-.000015,2.968598.000016,4.412445.000503,21.650521.086975,43.30188-.123719,64.950333-.022506,2.312805-1.244262,5.101395-2.828903,6.823349-5.519562,5.997787-11.267029,11.818924-17.314957,17.278381-1.956924,1.76651-5.07341,3.013657-7.714477,3.118958-9.311569.371277-18.65332-.042481-27.968948.274017-2.345612.079697-5.113129,1.241074-6.86522,2.818131-5.788177,5.209808-11.2005,10.837188-17.180908,16.721267c0-6.595886,0-12.794601,0-19.426025-10.154976,0-19.900848,0-30.250061,0c0-6.676804,0-12.930344,0-19.683853m36.821671-31.499268c0,6.902466,0,13.804947,0,20.464264c4.854049,0,8.942474,0,12.940918,0c0-13.377991,0-26.441032,0-39.578918-4.388886,0-8.468918,0-12.940918,0c0,6.197235,0,12.156074,0,19.114654m50.099655,17.905731c0-12.365051,0-24.73011,0-36.989822-4.828873,0-8.912262,0-13.138214,0c0,13.318283,0,26.359024,0,39.853256c3.952423,0,7.730438.078476,11.498047-.083862.571029-.024597,1.093826-1.168762,1.640167-2.779572Z" fill="url(#e5S38QloCFK4-fill)"/><path d="M131.916138,129.000488c0-6.458702,0-12.417541,0-18.614776c4.472,0,8.552032,0,12.940918,0c0,13.137886,0,26.200927,0,39.578918-3.998444,0-8.086869,0-12.940918,0c0-6.659317,0-13.561798,0-20.964142Z" fill="#fefefe"/><path d="M182.015167,147.898346c-.545715,1.118561-1.068512,2.262726-1.639541,2.287323-3.767609.162338-7.545624.083862-11.498047.083862c0-13.494232,0-26.534973,0-39.853256c4.225952,0,8.309341,0,13.138214,0c0,12.259712,0,24.624771-.000626,37.482071Z" fill="#fdfdfd"/></svg>
