<svg id="eIeukQSa3s51" xmlns="http://www.w3.org/2000/svg" xmlns:xlink="http://www.w3.org/1999/xlink" viewBox="0 0 280 280" shape-rendering="geometricPrecision" text-rendering="geometricPrecision" project-id="78dbbdd70e354b949769de5cb541115e" export-id="2bc198ee9d6a45b6b7bb7f588f865873" cached="false"><defs><linearGradient id="eIeukQSa3s52-fill" x1="0.175035" y1="0.877791" x2="0.816112" y2="0.11958" spreadMethod="pad" gradientUnits="objectBoundingBox" gradientTransform="translate(0 0)"><stop id="eIeukQSa3s52-fill-0" offset="0%" stop-color="#63c1ff"/><stop id="eIeukQSa3s52-fill-1" offset="100%" stop-color="#eb2f8a"/></linearGradient><linearGradient id="eIeukQSa3s54-fill" x1="0.175035" y1="0.877791" x2="0.816112" y2="0.11958" spreadMethod="pad" gradientUnits="objectBoundingBox" gradientTransform="translate(0 0)"><stop id="eIeukQSa3s54-fill-0" offset="0%" stop-color="#63c1ff"/><stop id="eIeukQSa3s54-fill-1" offset="100%" stop-color="#eb2f8a"/></linearGradient></defs><path d="M175.934265,260.978516c-70.388924,21.23825-146.619274-26.372788-157.990345-98.352585C6.772139,91.907646,52.125366,28.951952,122.609978,17.33696c65.29171-10.75927,130.45861,36.541031,141.530769,101.61084c10.681976,62.776626-26.832291,123.829055-88.206482,142.030716M201.84787,80.276161c.994629-1.228309,1.989242-2.456619,3.335831-4.119575-6.73581,0-12.842484-.149697-18.932389.103653-1.552337.064582-3.430374,1.056686-4.509964,2.223137-4.861526,5.252533-9.479919,10.729614-14.204193,16.109733-6.868805,7.822342-13.753265,15.630928-20.725006,23.552147-10.100418-13.394852-19.860283-26.426712-29.772179-39.341896-.960853-1.251984-2.852531-2.513542-4.328842-2.533501-14.083374-.190338-28.170364-.113647-43.030601-.113647c18.510772,24.231415,36.590309,47.898315,54.652267,71.542213-17.335838,19.838959-34.321571,39.277237-51.743385,59.214585c3.642128,0,6.364166-.38498,8.938431.068618c9.624366,1.695923,15.877159-2.487991,21.75177-9.916946c9.791649-12.382401,20.651489-23.92012,31.133323-35.895462.713669.787735,1.310471,1.358215,1.805786,2.006241c10.091919,13.203995,20.213501,26.385696,30.22168,39.652954c2.123169,2.814529,4.261109,4.346558,8.17334,4.215652c11.152344-.373123,22.325272-.131057,33.490097-.131057c1.693939,0,3.387878,0,5.857422,0-19.413117-25.66803-38.142044-50.431427-57.000412-75.365967c14.829697-16.940766,29.619217-33.835648,44.887024-51.270882Z" fill="url(#eIeukQSa3s52-fill)"/><path d="M201.608734,80.546341c-15.028671,17.165054-29.818191,34.059936-44.647888,51.000702c18.858368,24.93454,37.587295,49.697937,57.000412,75.365967-2.469544,0-4.163483,0-5.857422,0-11.164825,0-22.337753-.242066-33.490097.131057-3.912231.130906-6.050171-1.401123-8.17334-4.215652-10.008179-13.267258-20.129761-26.448959-30.22168-39.652954-.495315-.648026-1.092117-1.218506-1.805786-2.006241-10.481834,11.975342-21.341674,23.513061-31.133323,35.895462-5.874611,7.428955-12.127404,11.612869-21.75177,9.916946-2.574265-.453598-5.296303-.068618-8.938431-.068618c17.421814-19.937348,34.407547-39.375626,51.743385-59.214585-18.061958-23.643898-36.141495-47.310798-54.652267-71.542213c14.860237,0,28.947227-.076691,43.030601.113647c1.476311.019959,3.367989,1.281517,4.328842,2.533501c9.911896,12.915184,19.671761,25.947044,29.772179,39.341896c6.971741-7.921219,13.856201-15.729805,20.725006-23.552147c4.724274-5.380119,9.342667-10.8572,14.204193-16.109733c1.07959-1.166451,2.957627-2.158555,4.509964-2.223137c6.089905-.25335,12.196579-.103653,18.932389-.103653-1.346589,1.662956-2.341202,2.891266-3.574967,4.389755m-42.051376,75.372147c-16.197479-21.448472-32.373467-42.913292-48.644539-64.305794-1.002152-1.317589-2.669434-2.753205-4.174667-2.938896-3.512703-.433358-7.115265-.138321-11.473717-.138321c1.03289,1.563102,1.506149,2.382911,2.076874,3.128059c24.620102,32.145599,49.258407,64.27726,73.868347,96.430626c4.827759,6.307556,8.403656,7.455154,16.428589,4.928833-9.237244-12.20697-18.442337-24.371399-28.080887-37.104507Z" fill="#fbfbfb"/><path d="M159.774094,156.20282c9.421814,12.448776,18.626907,24.613205,27.864151,36.820175-8.024933,2.526321-11.60083,1.378723-16.428589-4.928833-24.60994-32.153366-49.248245-64.285027-73.868347-96.430626-.570725-.745148-1.043984-1.564957-2.076874-3.128059c4.358452,0,7.961014-.295037,11.473717.138321c1.505233.185691,3.172515,1.621307,4.174667,2.938896c16.271072,21.392502,32.44706,42.857322,48.861275,64.590126Z" fill="url(#eIeukQSa3s54-fill)"/></svg>
