<svg id="edVunZtRkTA1" xmlns="http://www.w3.org/2000/svg" xmlns:xlink="http://www.w3.org/1999/xlink" viewBox="0 0 280 280" shape-rendering="geometricPrecision" text-rendering="geometricPrecision" project-id="3591a1b0f74e477db1bc0de3fe423ad2" export-id="407adbffffae4e21973b8ee461a00afc" cached="false"><defs><linearGradient id="edVunZtRkTA2-fill" x1="0.1661" y1="0.864594" x2="0.853673" y2="0.147396" spreadMethod="pad" gradientUnits="objectBoundingBox" gradientTransform="translate(0 0)"><stop id="edVunZtRkTA2-fill-0" offset="0%" stop-color="#63c1ff"/><stop id="edVunZtRkTA2-fill-1" offset="100%" stop-color="#eb2f8a"/></linearGradient><linearGradient id="edVunZtRkTA4-fill" x1="-1.857549" y1="2.612935" x2="2.77766" y2="-1.488428" spreadMethod="pad" gradientUnits="objectBoundingBox" gradientTransform="translate(0 0)"><stop id="edVunZtRkTA4-fill-0" offset="0%" stop-color="#63c1ff"/><stop id="edVunZtRkTA4-fill-1" offset="100%" stop-color="#eb2f8a"/></linearGradient></defs><path d="M149.61911,16.235474c32.034668,2.837865,59.522324,14.898414,81.157639,38.129112c33.51387,35.985206,44.09407,78.443458,28.767044,125.168358-15.416916,46.998794-48.936615,75.837448-97.833863,84.449356C92.323166,276.20285,27.203455,228.138016,17.184523,158.539536C7.196777,89.157692,57.737926,24.030853,127.221916,16.940676c7.26043-.74086,14.61953-.514906,22.397194-.705202m1.877472,73.853515c-10.654938.058441-21.320389-.157135-31.961891.251267-10.964623.420814-21.941727,1.122009-32.846245,2.314369-8.934143.976913-14.451843,6.451103-15.982681,15.354118-3.698349,21.50882-3.721359,43.09108-.090386,64.586518c1.720726,10.186721,7.506798,15.337371,17.985947,16.2789c34.565956,3.105682,69.165627,3.102493,103.733711.029571c11.21872-.997253,17.021652-6.738754,18.654328-17.961151c2.892791-19.883774,2.904083-39.822693.143936-59.71875-1.756165-12.659103-7.47403-18.17675-20.248017-19.147552-12.773132-.970742-25.592071-1.338623-39.388702-1.98729Z" transform="translate(.000002 0.000002)" fill="url(#edVunZtRkTA2-fill)"/><path d="M151.995468,90.097244c13.297745.640412,26.116684,1.008293,38.889816,1.979035c12.773987.970802,18.491852,6.488449,20.248017,19.147552c2.760147,19.896057,2.748855,39.834976-.143936,59.71875-1.632676,11.222397-7.435608,16.963898-18.654328,17.961151-34.568084,3.072922-69.167755,3.076111-103.733711-.029571-10.479149-.941529-16.265221-6.092179-17.985947-16.2789-3.630973-21.495438-3.607963-43.077698.090386-64.586518c1.530838-8.903015,7.048538-14.377205,15.982681-15.354118c10.904518-1.19236,21.881622-1.893555,32.846245-2.314369c10.641502-.408402,21.306953-.192826,32.460777-.243012M126.069763,123.93071c0,12.545257,0,25.090515,0,38.307373c12.794235-7.364319,24.991226-14.384857,37.682343-21.689819-12.877533-7.384812-25.032715-14.355385-37.681702-21.609131c0,1.863884,0,2.988418-.000641,4.991577Z" transform="translate(0-.645225)" fill="#fefefe"/><path d="M126.070084,123.491394c.00032-1.563843.00032-2.688377.00032-4.552261c12.648987,7.253746,24.804169,14.224319,37.681702,21.609131-12.691117,7.304962-24.888108,14.3255-37.682343,21.689819c0-13.216858,0-25.762116.000321-38.746689Z" fill="url(#edVunZtRkTA4-fill)"/></svg>
