<svg xmlns="http://www.w3.org/2000/svg" viewBox="0 0 64 64" fill="none">
  <defs>
    <linearGradient id="flameOuter" x1="10" y1="6" x2="54" y2="58" gradientUnits="userSpaceOnUse">
      <stop offset="0" stop-color="#f472b6"/>
      <stop offset="1" stop-color="#7c3aed"/>
    </linearGradient>
    <linearGradient id="flameInner" x1="24" y1="26" x2="40" y2="52" gradientUnits="userSpaceOnUse">
      <stop offset="0" stop-color="#7dd3fc"/>
      <stop offset="1" stop-color="#4338ca"/>
    </linearGradient>
  </defs>
  <circle cx="32" cy="34" r="24" fill="#150c26"/>
  <path fill="url(#flameOuter)" d="M32 4c2 8-4 11-4 18 0 5 4 8 4 8s4-3 4-8c0-4-2-6-1-11 4 3 10 10 10 20 0 9-6 16-13 16s-13-7-13-16C19 18 26 10 32 4Z"/>
  <path fill="url(#flameInner)" d="M32 26c1 4-2 5.5-2 9 0 2.5 2 4 2 4s2-1.5 2-4c0-2-1-3-.5-5.5 2 1.5 4.5 5 4.5 9.5 0 4.5-3 8-6 8s-6-3.5-6-8c0-6 3.5-10 6-13Z"/>
</svg>
